#Comment line ignore any data following # character 
#Hierarchical Translation and Rotation (.htr) file 
[Header]	
#Header keywords are followed by a single value 
FileType HTR		#Single word string
DataType HTRS		#Translation followed by rotation and scale data
FileVersion 1		#integer
NumSegments 84		#integer
NumFrames 2		#integer
DataFrameRate 30		#integer, data frame rate in this file
EulerRotationOrder ZYX
CalibrationUnits mm
RotationUnits Degrees
GlobalAxisofGravity Y
BoneLengthAxis Y
ScaleFactor 1.00
[SegmentNames&Hierarchy]
#CHILD	PARENT
MASTER GLOBAL
root MASTER
chest root
L_mid_tent01 root
R_mid_tent01 root
spine01 root
Bip01_Neck chest
L_humerus chest
R_humerus chest
weapon_bone chest
Bip01_Head Bip01_Neck
eye_left_bone Bip01_Head
eye_right_bone Bip01_Head
L_forearm L_humerus
L_front_hand L_forearm
L_weapon_bone L_forearm
L_front_hand01_01 L_front_hand
L_front_hand02_01 L_front_hand
L_front_hand03_01 L_front_hand
L_front_hand01_02 L_front_hand01_01
L_front_hand02_02 L_front_hand02_01
L_front_hand03_02 L_front_hand03_01
R_forearm R_humerus
R_front_hand R_forearm
R_weapon_bone R_forearm
R_front_hand01_01 R_front_hand
R_front_hand02_01 R_front_hand
R_front_hand03_01 R_front_hand
R_front_hand01_02 R_front_hand01_01
R_front_hand02_02 R_front_hand02_01
R_front_hand03_02 R_front_hand03_01
null_rope01_connect L_mid_tent01
Rope1_Seg01 null_rope01_connect
Rope1_Seg02 Rope1_Seg01
Rope1_Seg03 Rope1_Seg02
Rope1_Seg04 Rope1_Seg03
Rope1_Seg05 Rope1_Seg04
Rope1_Seg06 Rope1_Seg05
Rope1_Seg07 Rope1_Seg06
Rope1_Seg09 Rope1_Seg07
L_mid_hand01 Rope1_Seg09
L_mid_hand02 Rope1_Seg09
L_mid_hand03 Rope1_Seg09
null_rope02_connect R_mid_tent01
Rope2_Seg01 null_rope02_connect
Rope2_Seg02 Rope2_Seg01
Rope2_Seg03 Rope2_Seg02
Rope2_Seg04 Rope2_Seg03
Rope2_Seg05 Rope2_Seg04
Rope2_Seg06 Rope2_Seg05
Rope2_Seg07 Rope2_Seg06
Rope2_Seg09 Rope2_Seg07
R_mid_hand01 Rope2_Seg09
R_mid_hand02 Rope2_Seg09
R_mid_hand03 Rope2_Seg09
spine02 spine01
spine03 spine02
pelvis spine03
null_rope03_connect pelvis
null_rope04_connect pelvis
Rope3_Seg01 null_rope03_connect
Rope3_Seg02 Rope3_Seg01
Rope3_Seg03 Rope3_Seg02
Rope3_Seg04 Rope3_Seg03
Rope3_Seg05 Rope3_Seg04
Rope3_Seg06 Rope3_Seg05
Rope3_Seg07 Rope3_Seg06
Rope3_Seg08 Rope3_Seg07
Rope3_Seg09 Rope3_Seg08
R_rear_hand01 Rope3_Seg09
R_rear_hand02 Rope3_Seg09
R_rear_hand03 Rope3_Seg09
Rope4_Seg01 null_rope04_connect
Rope4_Seg02 Rope4_Seg01
Rope4_Seg03 Rope4_Seg02
Rope4_Seg04 Rope4_Seg03
Rope4_Seg05 Rope4_Seg04
Rope4_Seg06 Rope4_Seg05
Rope4_Seg07 Rope4_Seg06
Rope4_Seg08 Rope4_Seg07
Rope4_Seg09 Rope4_Seg08
L_rear_hand01 Rope4_Seg09
L_rear_hand02 Rope4_Seg09
L_rear_hand03 Rope4_Seg09
[BasePosition]
#SegmentName Tx, Ty, Tz, Rx, Ry, Rz, BoneLength
MASTER 0.000000 0.000000 0.000000 -90.000000 0.000000 0.000000 10.000000 
root 0.000000 0.000000 0.000000 0.000000 0.000000 0.000000 10.000000 
chest 0.000000 0.000000 0.000000 0.000000 0.000000 0.000000 10.000000 
L_mid_tent01 0.000000 0.000000 0.000000 0.000000 0.000000 0.000000 10.000000 
R_mid_tent01 0.000000 0.000000 0.000000 0.000000 0.000000 0.000000 10.000000 
spine01 0.000000 0.000000 0.000000 0.000000 0.000000 0.000000 10.000000 
Bip01_Neck 0.000000 0.000000 0.000000 0.000000 0.000000 0.000000 10.000000 
L_humerus 0.000000 0.000000 0.000000 0.000000 0.000000 0.000000 10.000000 
R_humerus 0.000000 0.000000 0.000000 0.000000 0.000000 0.000000 10.000000 
weapon_bone 0.000000 0.000000 0.000000 0.000000 0.000000 0.000000 10.000000 
Bip01_Head 0.000000 0.000000 0.000000 0.000000 0.000000 0.000000 10.000000 
eye_left_bone 0.000000 0.000000 0.000000 0.000000 0.000000 0.000000 10.000000 
eye_right_bone 0.000000 0.000000 0.000000 0.000000 0.000000 0.000000 10.000000 
L_forearm 0.000000 0.000000 0.000000 0.000000 0.000000 0.000000 10.000000 
L_front_hand 0.000000 0.000000 0.000000 0.000000 0.000000 0.000000 10.000000 
L_weapon_bone 0.000000 0.000000 0.000000 0.000000 0.000000 0.000000 10.000000 
L_front_hand01_01 0.000000 0.000000 0.000000 0.000000 0.000000 0.000000 10.000000 
L_front_hand02_01 0.000000 0.000000 0.000000 0.000000 0.000000 0.000000 10.000000 
L_front_hand03_01 0.000000 0.000000 0.000000 0.000000 0.000000 0.000000 10.000000 
L_front_hand01_02 0.000000 0.000000 0.000000 0.000000 0.000000 0.000000 10.000000 
L_front_hand02_02 0.000000 0.000000 0.000000 0.000000 0.000000 0.000000 10.000000 
L_front_hand03_02 0.000000 0.000000 0.000000 0.000000 0.000000 0.000000 10.000000 
R_forearm 0.000000 0.000000 0.000000 0.000000 0.000000 0.000000 10.000000 
R_front_hand 0.000000 0.000000 0.000000 0.000000 0.000000 0.000000 10.000000 
R_weapon_bone 0.000000 0.000000 0.000000 0.000000 0.000000 0.000000 10.000000 
R_front_hand01_01 0.000000 0.000000 0.000000 0.000000 0.000000 0.000000 10.000000 
R_front_hand02_01 0.000000 0.000000 0.000000 0.000000 0.000000 0.000000 10.000000 
R_front_hand03_01 0.000000 0.000000 0.000000 0.000000 0.000000 0.000000 10.000000 
R_front_hand01_02 0.000000 0.000000 0.000000 0.000000 0.000000 0.000000 10.000000 
R_front_hand02_02 0.000000 0.000000 0.000000 0.000000 0.000000 0.000000 10.000000 
R_front_hand03_02 0.000000 0.000000 0.000000 0.000000 0.000000 0.000000 10.000000 
null_rope01_connect 0.000000 0.000000 0.000000 0.000000 0.000000 0.000000 10.000000 
Rope1_Seg01 0.000000 0.000000 0.000000 0.000000 0.000000 0.000000 10.000000 
Rope1_Seg02 0.000000 0.000000 0.000000 0.000000 0.000000 0.000000 10.000000 
Rope1_Seg03 0.000000 0.000000 0.000000 0.000000 0.000000 0.000000 10.000000 
Rope1_Seg04 0.000000 0.000000 0.000000 0.000000 0.000000 0.000000 10.000000 
Rope1_Seg05 0.000000 0.000000 0.000000 0.000000 0.000000 0.000000 10.000000 
Rope1_Seg06 0.000000 0.000000 0.000000 0.000000 0.000000 0.000000 10.000000 
Rope1_Seg07 0.000000 0.000000 0.000000 0.000000 0.000000 0.000000 10.000000 
Rope1_Seg09 0.000000 0.000000 0.000000 0.000000 0.000000 0.000000 10.000000 
L_mid_hand01 0.000000 0.000000 0.000000 0.000000 0.000000 0.000000 10.000000 
L_mid_hand02 0.000000 0.000000 0.000000 0.000000 0.000000 0.000000 10.000000 
L_mid_hand03 0.000000 0.000000 0.000000 0.000000 0.000000 0.000000 10.000000 
null_rope02_connect 0.000000 0.000000 0.000000 0.000000 0.000000 0.000000 10.000000 
Rope2_Seg01 0.000000 0.000000 0.000000 0.000000 0.000000 0.000000 10.000000 
Rope2_Seg02 0.000000 0.000000 0.000000 0.000000 0.000000 0.000000 10.000000 
Rope2_Seg03 0.000000 0.000000 0.000000 0.000000 0.000000 0.000000 10.000000 
Rope2_Seg04 0.000000 0.000000 0.000000 0.000000 0.000000 0.000000 10.000000 
Rope2_Seg05 0.000000 0.000000 0.000000 0.000000 0.000000 0.000000 10.000000 
Rope2_Seg06 0.000000 0.000000 0.000000 0.000000 0.000000 0.000000 10.000000 
Rope2_Seg07 0.000000 0.000000 0.000000 0.000000 0.000000 0.000000 10.000000 
Rope2_Seg09 0.000000 0.000000 0.000000 0.000000 0.000000 0.000000 10.000000 
R_mid_hand01 0.000000 0.000000 0.000000 0.000000 0.000000 0.000000 10.000000 
R_mid_hand02 0.000000 0.000000 0.000000 0.000000 0.000000 0.000000 10.000000 
R_mid_hand03 0.000000 0.000000 0.000000 0.000000 0.000000 0.000000 10.000000 
spine02 0.000000 0.000000 0.000000 0.000000 0.000000 0.000000 10.000000 
spine03 0.000000 0.000000 0.000000 0.000000 0.000000 0.000000 10.000000 
pelvis 0.000000 0.000000 0.000000 0.000000 0.000000 0.000000 10.000000 
null_rope03_connect 0.000000 0.000000 0.000000 0.000000 0.000000 0.000000 10.000000 
null_rope04_connect 0.000000 0.000000 0.000000 0.000000 0.000000 0.000000 10.000000 
Rope3_Seg01 0.000000 0.000000 0.000000 0.000000 0.000000 0.000000 10.000000 
Rope3_Seg02 0.000000 0.000000 0.000000 0.000000 0.000000 0.000000 10.000000 
Rope3_Seg03 0.000000 0.000000 0.000000 0.000000 0.000000 0.000000 10.000000 
Rope3_Seg04 0.000000 0.000000 0.000000 0.000000 0.000000 0.000000 10.000000 
Rope3_Seg05 0.000000 0.000000 0.000000 0.000000 0.000000 0.000000 10.000000 
Rope3_Seg06 0.000000 0.000000 0.000000 0.000000 0.000000 0.000000 10.000000 
Rope3_Seg07 0.000000 0.000000 0.000000 0.000000 0.000000 0.000000 10.000000 
Rope3_Seg08 0.000000 0.000000 0.000000 0.000000 0.000000 0.000000 10.000000 
Rope3_Seg09 0.000000 0.000000 0.000000 0.000000 0.000000 0.000000 10.000000 
R_rear_hand01 0.000000 0.000000 0.000000 0.000000 0.000000 0.000000 10.000000 
R_rear_hand02 0.000000 0.000000 0.000000 0.000000 0.000000 0.000000 10.000000 
R_rear_hand03 0.000000 0.000000 0.000000 0.000000 0.000000 0.000000 10.000000 
Rope4_Seg01 0.000000 0.000000 0.000000 0.000000 0.000000 0.000000 10.000000 
Rope4_Seg02 0.000000 0.000000 0.000000 0.000000 0.000000 0.000000 10.000000 
Rope4_Seg03 0.000000 0.000000 0.000000 0.000000 0.000000 0.000000 10.000000 
Rope4_Seg04 0.000000 0.000000 0.000000 0.000000 0.000000 0.000000 10.000000 
Rope4_Seg05 0.000000 0.000000 0.000000 0.000000 0.000000 0.000000 10.000000 
Rope4_Seg06 0.000000 0.000000 0.000000 0.000000 0.000000 0.000000 10.000000 
Rope4_Seg07 0.000000 0.000000 0.000000 0.000000 0.000000 0.000000 10.000000 
Rope4_Seg08 0.000000 0.000000 0.000000 0.000000 0.000000 0.000000 10.000000 
Rope4_Seg09 0.000000 0.000000 0.000000 0.000000 0.000000 0.000000 10.000000 
L_rear_hand01 0.000000 0.000000 0.000000 0.000000 0.000000 0.000000 10.000000 
L_rear_hand02 0.000000 0.000000 0.000000 0.000000 0.000000 0.000000 10.000000 
L_rear_hand03 0.000000 0.000000 0.000000 0.000000 0.000000 0.000000 10.000000 
#Beginning of Data. Separated by tabs
#Fr	Tx	Ty	Tz	Rx	Ry	Rz	SF
[MASTER]
126 0.000000 0.000000 0.000000 0.000000 -0.002347 -89.999992 0.000000
127 0.000000 0.000000 0.000000 0.000000 -0.002347 -89.999992 0.000000
[root]
126 -14.348910 82.267487 472.594574 -88.582230 -10.448836 179.361130 479.916077
127 -14.348909 68.486649 472.594574 -88.582214 -10.448833 179.361130 477.746735
[chest]
126 -84.512650 -34.090519 0.000000 -5.294231 2.743893 -178.984543 91.129311
127 -84.512650 -34.090519 0.000000 -4.377962 2.155614 -178.985123 91.129311
[L_mid_tent01]
126 27.299511 22.177458 -249.918259 -63.657536 18.686338 33.262241 252.381134
127 27.299511 22.177458 -249.918259 -63.657536 18.686338 33.262241 252.381134
[R_mid_tent01]
126 23.228794 24.509907 226.238495 -131.259216 -15.836094 39.582561 228.744751
127 23.228794 24.509907 226.238495 -131.259216 -15.836094 39.582561 228.744751
[spine01]
126 -0.361383 -0.195265 0.000000 0.001845 0.001451 13.654368 0.410763
127 -0.361383 -0.195265 0.000000 0.001845 0.001451 13.654368 0.410763
[Bip01_Neck]
126 165.484543 71.581718 0.000119 176.643677 -1.657967 43.431911 180.302734
127 165.484543 71.581718 0.000119 176.643677 -1.657967 43.431911 180.302734
[L_humerus]
126 -13.983130 -135.272980 -120.471481 128.764587 57.495228 -149.275131 181.680161
127 -13.983130 -135.272980 -120.471481 128.764587 57.495228 -149.275131 181.680161
[R_humerus]
126 -13.983309 -135.273102 125.287651 -128.068832 -39.104877 -153.182327 184.909012
127 -13.983309 -135.273102 125.287651 -128.068832 -39.104877 -153.182327 184.909012
[weapon_bone]
126 235.964890 -300.705902 0.000000 0.000000 -89.951546 -128.212341 382.234833
127 235.964890 -300.705902 0.000000 0.000000 -89.951546 -128.212341 382.234833
[Bip01_Head]
126 128.171936 128.412277 8.333419 1.938589 3.724703 -19.795940 181.623810
127 128.171936 128.412277 8.333419 1.938589 3.724703 -19.795940 181.623810
[eye_left_bone]
126 -24.626970 125.451866 -64.772606 0.000000 -90.000000 -99.840431 143.318359
127 -24.626970 125.451866 -64.772606 0.000000 -90.000000 -99.840431 143.318359
[eye_right_bone]
126 -24.626970 125.451866 64.327362 0.000000 -89.965736 80.156380 143.117676
127 -24.626970 125.451866 64.327362 0.000000 -89.965736 80.156380 143.117676
[L_forearm]
126 322.776093 0.000000 -0.000119 0.000719 -0.002234 -125.690590 322.776093
127 322.776093 0.000000 -0.000119 0.000719 -0.002234 -125.690590 322.776093
[L_front_hand]
126 241.149185 -0.042021 -3.300071 -146.311249 -1.835018 -27.424925 241.171753
127 241.149185 -0.042021 -3.300071 -146.311249 -1.835018 -27.424925 241.171753
[L_weapon_bone]
126 156.183838 0.000000 0.000000 0.000014 0.000007 0.000001 156.183838
127 156.183838 0.000000 0.000000 0.000014 0.000007 0.000001 156.183838
[L_front_hand01_01]
126 86.095154 20.947098 -0.655860 -0.366594 -0.477154 75.385574 88.609184
127 86.095154 20.947098 -0.655860 -0.366594 -0.477154 75.385574 88.609184
[L_front_hand02_01]
126 86.935165 -11.437475 24.513514 154.399796 -59.883835 -61.369587 91.046425
127 86.935165 -11.437475 24.513514 154.399796 -59.883835 -61.369587 91.046425
[L_front_hand03_01]
126 86.637497 -14.123976 -20.424902 -153.913849 58.118130 -62.702866 90.126129
127 86.637497 -14.123976 -20.424902 -153.913879 58.118130 -62.702892 90.126129
[L_front_hand01_02]
126 71.020905 -0.000179 0.000030 0.000334 -0.002323 -106.379684 71.020905
127 71.020905 -0.000179 0.000030 0.000334 -0.002323 -106.379684 71.020905
[L_front_hand02_02]
126 71.020927 -0.000119 0.000060 0.000334 -0.002323 -106.379684 71.020927
127 71.020927 -0.000119 0.000060 0.000334 -0.002323 -106.379684 71.020927
[L_front_hand03_02]
126 71.020905 -0.000060 0.000060 0.000334 -0.002323 -106.379684 71.020905
127 71.020905 -0.000060 0.000060 0.000334 -0.002323 -106.379684 71.020905
[R_forearm]
126 322.776428 -0.000060 0.000030 0.183110 0.110930 -121.475273 322.776428
127 322.776428 -0.000060 0.000030 0.183110 0.110930 -121.475273 322.776428
[R_front_hand]
126 238.847015 -0.006795 2.210259 144.522873 -10.645198 -26.316446 238.857239
127 238.847015 -0.006795 2.210259 144.522873 -10.645198 -26.316442 238.857239
[R_weapon_bone]
126 155.664093 0.002503 -0.000030 0.003487 0.001180 -90.988930 155.664078
127 155.664093 0.002503 -0.000030 0.003487 0.001180 -90.988930 155.664078
[R_front_hand01_01]
126 87.624611 14.231146 22.918642 -154.633499 -59.950619 61.746044 91.683487
127 87.624611 14.231146 22.918642 -154.633499 -59.950619 61.746044 91.683487
[R_front_hand02_01]
126 89.356956 14.367283 -19.491137 154.602661 58.302849 63.744389 92.579636
127 89.356956 14.367283 -19.491137 154.602661 58.302849 63.744389 92.579636
[R_front_hand03_01]
126 87.286232 -22.307278 -0.143439 0.162155 -0.423168 -75.767921 90.091743
127 87.286232 -22.307278 -0.143439 0.162155 -0.423168 -75.767921 90.091743
[R_front_hand01_02]
126 71.020905 0.000060 0.000119 0.002323 -0.000334 106.381714 71.020905
127 71.020905 0.000060 0.000119 0.002323 -0.000334 106.381714 71.020905
[R_front_hand02_02]
126 71.020844 -0.000030 -0.000119 0.002323 -0.000334 106.381714 71.020836
127 71.020844 -0.000030 -0.000119 0.002323 -0.000334 106.381714 71.020836
[R_front_hand03_02]
126 71.020905 0.000000 0.000030 0.002323 -0.000334 106.381714 71.020905
127 71.020905 0.000000 0.000030 0.002323 -0.000334 106.381714 71.020905
[null_rope01_connect]
126 328.732483 0.000000 -0.000238 -166.231216 26.298847 69.278114 328.732483
127 328.732483 0.000000 -0.000238 -166.231216 26.298847 69.278114 328.732483
[Rope1_Seg01]
126 0.000000 0.000000 0.000000 143.208282 -39.614182 -70.803215 0.000000
127 0.000000 0.000000 0.000000 144.400116 -40.632359 -70.990639 0.000000
[Rope1_Seg02]
126 139.999863 -0.000179 0.000000 -7.090441 -4.747645 -5.608326 139.999863
127 139.999863 -0.000179 0.000000 -7.051014 -4.811627 -5.397470 139.999863
[Rope1_Seg03]
126 139.999924 0.000060 -0.000060 -9.934629 -6.601220 -10.255286 139.999924
127 139.999924 0.000060 -0.000060 -10.103802 -6.818780 -10.008957 139.999924
[Rope1_Seg04]
126 139.999924 -0.000060 -0.000119 -11.220798 -7.757047 -20.318027 139.999924
127 139.999924 -0.000060 -0.000119 -11.768573 -8.367208 -20.428165 139.999924
[Rope1_Seg05]
126 139.999832 0.000119 -0.000060 -5.831900 -3.532483 -24.001755 139.999832
127 139.999832 0.000119 -0.000060 -6.199337 -3.929386 -24.893915 139.999832
[Rope1_Seg06]
126 139.999954 0.000119 -0.000060 -0.673569 -3.258338 -22.432030 139.999954
127 139.999954 0.000119 -0.000060 -0.770882 -3.147063 -22.061413 139.999954
[Rope1_Seg07]
126 139.999985 0.000060 0.000000 6.200391 -4.670808 -28.698658 139.999985
127 139.999985 0.000060 0.000000 5.856473 -4.644230 -28.228678 139.999985
[Rope1_Seg09]
126 121.602913 0.000119 -0.000089 -89.793175 -1.359789 0.847147 121.602913
127 121.602913 0.000119 -0.000089 -89.793175 -1.359789 0.847147 121.602913
[L_mid_hand01]
126 103.859421 1.038730 8.195221 109.056198 -40.604698 -13.201401 104.187431
127 103.859421 1.038730 8.195221 109.056198 -40.604698 -13.201401 104.187431
[L_mid_hand02]
126 105.572853 -4.139662 -10.864139 -146.713593 31.476528 -37.902313 106.211075
127 105.572853 -4.139662 -10.864139 -146.713593 31.476528 -37.902313 106.211075
[L_mid_hand03]
126 104.641464 17.579376 -3.913581 -14.267233 12.322316 43.898396 106.179977
127 104.641464 17.579376 -3.913581 -14.267233 12.322316 43.898396 106.179977
[null_rope02_connect]
126 328.732849 0.000179 -0.000119 -164.342651 -37.938038 110.680077 328.732849
127 328.732849 0.000179 -0.000119 -164.342651 -37.938038 110.680077 328.732849
[Rope2_Seg01]
126 -0.000038 -0.000114 0.000111 -64.143547 -42.623512 -113.234543 0.000164
127 -0.000038 -0.000114 0.000111 -63.659557 -42.503330 -113.872116 0.000164
[Rope2_Seg02]
126 139.999741 -0.000060 -0.000119 3.362442 1.577295 6.246233 139.999756
127 139.999741 -0.000060 -0.000119 3.257467 1.404841 6.237148 139.999756
[Rope2_Seg03]
126 140.000107 0.000030 0.000000 7.051214 3.724407 11.921851 140.000107
127 140.000107 0.000030 0.000000 6.927495 3.374184 11.962941 140.000107
[Rope2_Seg04]
126 139.999802 0.000000 -0.000060 19.910709 11.810343 30.610003 139.999802
127 139.999802 0.000000 -0.000060 20.248457 10.954883 31.131937 139.999802
[Rope2_Seg05]
126 139.999985 -0.000060 0.000119 18.758911 23.004362 32.277061 139.999985
127 139.999985 -0.000060 0.000119 19.835197 22.517860 33.141911 139.999985
[Rope2_Seg06]
126 139.999893 -0.000030 -0.000119 1.450261 14.374293 4.876981 139.999893
127 139.999893 -0.000030 -0.000119 1.614559 14.484439 4.640471 139.999893
[Rope2_Seg07]
126 139.999893 0.000060 -0.000060 -1.674673 21.075102 0.183158 139.999893
127 139.999893 0.000060 -0.000060 -1.601739 21.426800 -0.573221 139.999893
[Rope2_Seg09]
126 121.338966 0.000089 -0.000060 33.793236 -1.359788 -0.847141 121.338966
127 121.338966 0.000089 -0.000060 33.793236 -1.359788 -0.847141 121.338966
[R_mid_hand01]
126 104.680779 11.144459 -10.335981 -37.204079 31.906813 37.576260 105.778534
127 104.680779 11.144459 -10.335981 -37.204079 31.906813 37.576260 105.778534
[R_mid_hand02]
126 104.070427 2.443552 8.231699 70.367462 -42.427391 14.067809 104.424065
127 104.070427 2.443552 8.231699 70.367462 -42.427391 14.067809 104.424065
[R_mid_hand03]
126 106.028137 -11.221827 -5.996406 -169.893616 12.226661 -47.211018 106.788818
127 106.028137 -11.221827 -5.996406 -169.893616 12.226661 -47.211018 106.788818
[spine02]
126 129.756927 0.001550 0.000119 -1.023899 -3.926965 6.770993 129.756927
127 129.756927 0.001550 0.000119 -1.023899 -3.926965 6.770993 129.756927
[spine03]
126 78.613846 0.087372 -4.898873 1.040681 4.146420 4.212376 78.766380
127 78.613846 0.087372 -4.898873 1.040681 4.146420 4.212376 78.766380
[pelvis]
126 169.435242 0.051022 0.000000 0.019518 -0.190233 -10.721436 169.435257
127 169.435242 0.051022 0.000000 0.019518 -0.190233 -10.721436 169.435257
[null_rope03_connect]
126 -1.257226 -2.466202 137.391083 21.146282 88.832657 -72.228729 137.418976
127 -1.257226 -2.466202 137.391083 21.146282 88.832657 -72.228729 137.418976
[null_rope04_connect]
126 -1.259640 -2.480268 -137.844437 21.146282 88.832657 -72.228729 137.872513
127 -1.259640 -2.480268 -137.844437 21.146282 88.832657 -72.228729 137.872513
[Rope3_Seg01]
126 0.000000 0.000000 0.000000 -146.443298 -46.861729 117.556366 0.000000
127 0.000000 0.000000 0.000000 -148.845947 -47.440865 120.482216 0.000000
[Rope3_Seg02]
126 139.999924 -0.000119 0.000060 4.786328 -11.359047 5.233349 139.999924
127 139.999924 -0.000119 0.000060 4.971227 -10.599262 4.971212 139.999924
[Rope3_Seg03]
126 139.999924 -0.000119 0.000119 7.290036 -17.476974 10.264370 139.999924
127 139.999924 -0.000119 0.000119 7.679028 -16.568266 9.983875 139.999924
[Rope3_Seg04]
126 139.999924 0.000119 0.000000 7.090006 -18.370850 12.877571 139.999924
127 139.999924 0.000119 0.000000 7.722676 -18.795952 14.141773 139.999924
[Rope3_Seg05]
126 139.999924 -0.000238 0.000060 4.240927 -10.941882 13.630669 139.999924
127 139.999924 -0.000238 0.000060 4.390828 -10.959866 13.721698 139.999924
[Rope3_Seg06]
126 139.999893 -0.000119 -0.000060 -1.063362 -14.446807 33.218899 139.999893
127 139.999893 -0.000119 -0.000060 0.042807 -13.288272 30.096828 139.999893
[Rope3_Seg07]
126 139.999771 0.000060 -0.000119 -9.814260 -11.978223 31.165806 139.999771
127 139.999771 0.000060 -0.000119 -9.667320 -12.141490 33.212170 139.999771
[Rope3_Seg08]
126 139.999985 -0.000060 0.000000 -4.957604 -5.913549 10.378226 139.999985
127 139.999985 -0.000060 0.000000 -5.408832 -6.215717 11.479847 139.999985
[Rope3_Seg09]
126 90.185997 -0.000179 -0.000060 89.793228 -1.359877 -0.847183 90.185997
127 90.185997 -0.000179 -0.000060 89.793228 -1.359877 -0.847183 90.185997
[R_rear_hand01]
126 103.366196 -6.073594 -10.757982 -164.755127 19.627697 -40.352161 104.101845
127 103.366196 -6.073594 -10.757982 -164.755127 19.627697 -40.352161 104.101845
[R_rear_hand02]
126 100.509819 12.039542 -7.992327 -30.792645 24.782448 38.141541 101.543350
127 100.509819 12.039542 -7.992327 -30.792648 24.782446 38.141533 101.543350
[R_rear_hand03]
126 101.539970 5.215704 5.435467 82.448349 -41.048244 8.840375 101.819031
127 101.539970 5.215704 5.435467 82.448349 -41.048256 8.840378 101.819031
[Rope4_Seg01]
126 0.000010 0.000038 -0.000114 61.165009 -42.715214 65.384674 0.000121
127 0.000010 0.000038 -0.000114 61.165009 -42.715210 65.384666 0.000121
[Rope4_Seg02]
126 139.999985 0.000060 0.000119 -4.962852 4.744948 -11.563675 139.999985
127 139.999985 0.000060 0.000119 -4.962852 4.744948 -11.563675 139.999985
[Rope4_Seg03]
126 139.999924 0.000000 -0.000238 -8.140793 8.822360 -17.784430 139.999924
127 139.999924 0.000000 -0.000238 -8.140736 8.828401 -17.783094 139.999924
[Rope4_Seg04]
126 139.999985 0.000000 0.000119 -7.994391 11.699877 -18.631905 139.999985
127 139.999985 0.000000 0.000119 -7.998449 11.894588 -18.618965 139.999985
[Rope4_Seg05]
126 139.999802 -0.000060 -0.000119 -4.187768 10.463902 -12.630664 139.999802
127 139.999802 -0.000060 -0.000119 -4.142307 10.402440 -12.681795 139.999802
[Rope4_Seg06]
126 139.999924 0.000000 0.000060 -6.568593 22.970312 -25.286177 139.999924
127 139.999924 0.000000 0.000060 -6.565300 22.208220 -25.424074 139.999924
[Rope4_Seg07]
126 139.999802 0.000000 0.000000 -0.049618 25.556007 -27.380085 139.999802
127 139.999802 0.000000 0.000000 -0.577187 24.968756 -27.699583 139.999802
[Rope4_Seg08]
126 139.999924 0.000000 0.000119 1.851531 8.527428 -10.430264 139.999924
127 139.999924 0.000000 0.000119 1.575351 8.544736 -10.574889 139.999924
[Rope4_Seg09]
126 90.185791 0.000060 0.000060 -135.617828 2.228885 0.850567 90.185791
127 90.185791 0.000060 0.000060 -135.617828 2.228885 0.850567 90.185791
[L_rear_hand01]
126 101.696655 -8.392275 -7.654577 -31.684452 -23.583008 144.025742 102.329041
127 101.696655 -8.392275 -7.654577 -31.684452 -23.583008 144.025742 102.329041
[L_rear_hand02]
126 102.726799 -1.568258 5.773216 82.701553 38.753956 171.553619 102.900848
127 102.726799 -1.568258 5.773216 82.701553 38.753956 171.553619 102.900848
[L_rear_hand03]
126 104.552910 9.721220 -10.420293 -163.975403 -19.004421 -142.009338 105.519653
127 104.552910 9.721220 -10.420293 -163.975403 -19.004421 -142.009338 105.519653
